<?xml version="1.0" encoding="UTF-8" standalone="no"?>
<!DOCTYPE svg PUBLIC "-//W3C//DTD SVG 1.1//EN"
 "http://www.w3.org/Graphics/SVG/1.1/DTD/svg11.dtd">
<!-- Generated by graphviz version 2.40.1 (20161225.0304)
 -->
<!-- Title: dependencies Pages: 1 -->
<svg width="1861pt" height="284pt"
 viewBox="0.00 0.00 1861.00 284.00" xmlns="http://www.w3.org/2000/svg" xmlns:xlink="http://www.w3.org/1999/xlink">
<g id="graph0" class="graph" transform="scale(1 1) rotate(0) translate(4 280)">
<title>dependencies</title>
<polygon fill="#ffffff" stroke="transparent" points="-4,4 -4,-280 1857,-280 1857,4 -4,4"/>
<text text-anchor="start" x="905.5091" y="-42.4" font-family="sans-serif" font-weight="bold" font-size="14.00" fill="#000000">Legend</text>
<polygon fill="#ffffb3" stroke="transparent" points="692.5,-10 692.5,-30 712.5,-30 712.5,-10 692.5,-10"/>
<text text-anchor="start" x="716.129" y="-15.4" font-family="sans-serif" font-size="14.00" fill="#000000"> &#160;Declarations</text>
<polygon fill="#8dd3c7" stroke="transparent" points="805.5,-10 805.5,-30 825.5,-30 825.5,-10 805.5,-10"/>
<text text-anchor="start" x="829.2251" y="-15.4" font-family="sans-serif" font-size="14.00" fill="#000000"> &#160;Module</text>
<polygon fill="#80b1d3" stroke="transparent" points="891.5,-10 891.5,-30 911.5,-30 911.5,-10 891.5,-10"/>
<text text-anchor="start" x="915.2812" y="-15.4" font-family="sans-serif" font-size="14.00" fill="#000000"> &#160;Bootstrap</text>
<polygon fill="#fdb462" stroke="transparent" points="988.5,-10 988.5,-30 1008.5,-30 1008.5,-10 988.5,-10"/>
<text text-anchor="start" x="1012.1732" y="-15.4" font-family="sans-serif" font-size="14.00" fill="#000000"> &#160;Providers</text>
<polygon fill="#fb8072" stroke="transparent" points="1084.5,-10 1084.5,-30 1104.5,-30 1104.5,-10 1084.5,-10"/>
<text text-anchor="start" x="1108.2258" y="-15.4" font-family="sans-serif" font-size="14.00" fill="#000000"> &#160;Exports</text>
<g id="clust1" class="cluster">
<title>cluster_SharedModule</title>
<polygon fill="none" stroke="#000000" stroke-dasharray="1,5" points="8,-70 8,-268 1845,-268 1845,-70 8,-70"/>
</g>
<g id="clust2" class="cluster">
<title>cluster_SharedModule_declarations</title>
<polygon fill="none" stroke="#000000" points="16,-78 16,-130 1837,-130 1837,-78 16,-78"/>
</g>
<g id="clust11" class="cluster">
<title>cluster_SharedModule_exports</title>
<polygon fill="none" stroke="#000000" points="136,-208 136,-260 1715,-260 1715,-208 136,-208"/>
</g>
<!-- Components.CenteredContainerComponent -->
<g id="node1" class="node">
<title>Components.CenteredContainerComponent</title>
<polygon fill="#ffffb3" stroke="#000000" points="1828.8488,-122 1567.1512,-122 1567.1512,-86 1828.8488,-86 1828.8488,-122"/>
<text text-anchor="middle" x="1698" y="-99.8" font-family="Times,serif" font-size="14.00" fill="#000000">Components.CenteredContainerComponent</text>
</g>
<!-- SharedModule -->
<g id="node8" class="node">
<title>SharedModule</title>
<polygon fill="#8dd3c7" stroke="#000000" points="959.4231,-187 956.4231,-191 935.4231,-191 932.4231,-187 860.5769,-187 860.5769,-151 959.4231,-151 959.4231,-187"/>
<text text-anchor="middle" x="910" y="-164.8" font-family="Times,serif" font-size="14.00" fill="#000000">SharedModule</text>
</g>
<!-- Components.CenteredContainerComponent&#45;&gt;SharedModule -->
<g id="edge1" class="edge">
<title>Components.CenteredContainerComponent&#45;&gt;SharedModule</title>
<path fill="none" stroke="#000000" d="M1637.375,-122.1061C1637.375,-141.3391 1637.375,-169 1637.375,-169 1637.375,-169 969.4236,-169 969.4236,-169"/>
<polygon fill="#000000" stroke="#000000" points="969.4236,-165.5001 959.4236,-169 969.4235,-172.5001 969.4236,-165.5001"/>
</g>
<!-- Components.FavoritesModalComponent -->
<g id="node2" class="node">
<title>Components.FavoritesModalComponent</title>
<polygon fill="#ffffb3" stroke="#000000" points="1549.2575,-122 1304.7425,-122 1304.7425,-86 1549.2575,-86 1549.2575,-122"/>
<text text-anchor="middle" x="1427" y="-99.8" font-family="Times,serif" font-size="14.00" fill="#000000">Components.FavoritesModalComponent</text>
</g>
<!-- Components.FavoritesModalComponent&#45;&gt;SharedModule -->
<g id="edge2" class="edge">
<title>Components.FavoritesModalComponent&#45;&gt;SharedModule</title>
<path fill="none" stroke="#000000" d="M1364.7835,-122.0225C1364.7835,-139.3734 1364.7835,-163 1364.7835,-163 1364.7835,-163 969.5355,-163 969.5355,-163"/>
<polygon fill="#000000" stroke="#000000" points="969.5356,-159.5001 959.5355,-163 969.5355,-166.5001 969.5356,-159.5001"/>
</g>
<!-- Components.InsuranceTableComponent -->
<g id="node3" class="node">
<title>Components.InsuranceTableComponent</title>
<polygon fill="#ffffb3" stroke="#000000" points="1286.8914,-122 1045.1086,-122 1045.1086,-86 1286.8914,-86 1286.8914,-122"/>
<text text-anchor="middle" x="1166" y="-99.8" font-family="Times,serif" font-size="14.00" fill="#000000">Components.InsuranceTableComponent</text>
</g>
<!-- Components.InsuranceTableComponent&#45;&gt;SharedModule -->
<g id="edge3" class="edge">
<title>Components.InsuranceTableComponent&#45;&gt;SharedModule</title>
<path fill="none" stroke="#000000" d="M1103.132,-122.2396C1103.132,-137.5706 1103.132,-157 1103.132,-157 1103.132,-157 969.2351,-157 969.2351,-157"/>
<polygon fill="#000000" stroke="#000000" points="969.2351,-153.5001 959.2351,-157 969.235,-160.5001 969.2351,-153.5001"/>
</g>
<!-- Components.KindsSelectorComponent -->
<g id="node4" class="node">
<title>Components.KindsSelectorComponent</title>
<polygon fill="#ffffb3" stroke="#000000" points="1027.4194,-122 792.5806,-122 792.5806,-86 1027.4194,-86 1027.4194,-122"/>
<text text-anchor="middle" x="910" y="-99.8" font-family="Times,serif" font-size="14.00" fill="#000000">Components.KindsSelectorComponent</text>
</g>
<!-- Components.KindsSelectorComponent&#45;&gt;SharedModule -->
<g id="edge4" class="edge">
<title>Components.KindsSelectorComponent&#45;&gt;SharedModule</title>
<path fill="none" stroke="#000000" d="M910,-122.1061C910,-122.1061 910,-140.991 910,-140.991"/>
<polygon fill="#000000" stroke="#000000" points="906.5001,-140.9909 910,-150.991 913.5001,-140.991 906.5001,-140.9909"/>
</g>
<!-- Components.NotificationComponent -->
<g id="node5" class="node">
<title>Components.NotificationComponent</title>
<polygon fill="#ffffb3" stroke="#000000" points="774.759,-122 551.241,-122 551.241,-86 774.759,-86 774.759,-122"/>
<text text-anchor="middle" x="663" y="-99.8" font-family="Times,serif" font-size="14.00" fill="#000000">Components.NotificationComponent</text>
</g>
<!-- Components.NotificationComponent&#45;&gt;SharedModule -->
<g id="edge5" class="edge">
<title>Components.NotificationComponent&#45;&gt;SharedModule</title>
<path fill="none" stroke="#000000" d="M726.125,-122.2396C726.125,-137.5706 726.125,-157 726.125,-157 726.125,-157 850.7249,-157 850.7249,-157"/>
<polygon fill="#000000" stroke="#000000" points="850.7249,-160.5001 860.7249,-157 850.7248,-153.5001 850.7249,-160.5001"/>
</g>
<!-- Components.TableFilterComponent -->
<g id="node6" class="node">
<title>Components.TableFilterComponent</title>
<polygon fill="#ffffb3" stroke="#000000" points="532.8115,-122 315.1885,-122 315.1885,-86 532.8115,-86 532.8115,-122"/>
<text text-anchor="middle" x="424" y="-99.8" font-family="Times,serif" font-size="14.00" fill="#000000">Components.TableFilterComponent</text>
</g>
<!-- Components.TableFilterComponent&#45;&gt;SharedModule -->
<g id="edge6" class="edge">
<title>Components.TableFilterComponent&#45;&gt;SharedModule</title>
<path fill="none" stroke="#000000" d="M485.625,-122.0225C485.625,-139.3734 485.625,-163 485.625,-163 485.625,-163 850.4882,-163 850.4882,-163"/>
<polygon fill="#000000" stroke="#000000" points="850.4883,-166.5001 860.4882,-163 850.4882,-159.5001 850.4883,-166.5001"/>
</g>
<!-- Components.TableFilterContainerComponent -->
<g id="node7" class="node">
<title>Components.TableFilterContainerComponent</title>
<polygon fill="#ffffb3" stroke="#000000" points="297.519,-122 24.481,-122 24.481,-86 297.519,-86 297.519,-122"/>
<text text-anchor="middle" x="161" y="-99.8" font-family="Times,serif" font-size="14.00" fill="#000000">Components.TableFilterContainerComponent</text>
</g>
<!-- Components.TableFilterContainerComponent&#45;&gt;SharedModule -->
<g id="edge7" class="edge">
<title>Components.TableFilterContainerComponent&#45;&gt;SharedModule</title>
<path fill="none" stroke="#000000" d="M220.625,-122.1061C220.625,-141.3391 220.625,-169 220.625,-169 220.625,-169 850.6985,-169 850.6985,-169"/>
<polygon fill="#000000" stroke="#000000" points="850.6985,-172.5001 860.6985,-169 850.6985,-165.5001 850.6985,-172.5001"/>
</g>
<!-- Components.CenteredContainerComponent  -->
<g id="node9" class="node">
<title>Components.CenteredContainerComponent </title>
<polygon fill="#fb8072" stroke="#000000" points="1707.3486,-252 1442.6514,-252 1442.6514,-216 1707.3486,-216 1707.3486,-252"/>
<text text-anchor="middle" x="1575" y="-229.8" font-family="Times,serif" font-size="14.00" fill="#000000">Components.CenteredContainerComponent </text>
</g>
<!-- SharedModule&#45;&gt;Components.CenteredContainerComponent  -->
<g id="edge8" class="edge">
<title>SharedModule&#45;&gt;Components.CenteredContainerComponent </title>
<path fill="none" stroke="#000000" stroke-dasharray="5,2" d="M959.4445,-175C1100.6857,-175 1495.8522,-175 1495.8522,-175 1495.8522,-175 1495.8522,-205.9775 1495.8522,-205.9775"/>
<polygon fill="#000000" stroke="#000000" points="1492.3523,-205.9774 1495.8522,-215.9775 1499.3523,-205.9775 1492.3523,-205.9774"/>
</g>
<!-- Components.InsuranceTableComponent  -->
<g id="node10" class="node">
<title>Components.InsuranceTableComponent </title>
<polygon fill="#fb8072" stroke="#000000" points="1424.8917,-252 1179.1083,-252 1179.1083,-216 1424.8917,-216 1424.8917,-252"/>
<text text-anchor="middle" x="1302" y="-229.8" font-family="Times,serif" font-size="14.00" fill="#000000">Components.InsuranceTableComponent </text>
</g>
<!-- SharedModule&#45;&gt;Components.InsuranceTableComponent  -->
<g id="edge9" class="edge">
<title>SharedModule&#45;&gt;Components.InsuranceTableComponent </title>
<path fill="none" stroke="#000000" stroke-dasharray="5,2" d="M959.4275,-181C1049.9444,-181 1233.125,-181 1233.125,-181 1233.125,-181 1233.125,-205.7604 1233.125,-205.7604"/>
<polygon fill="#000000" stroke="#000000" points="1229.6251,-205.7604 1233.125,-215.7604 1236.6251,-205.7604 1229.6251,-205.7604"/>
</g>
<!-- Components.KindsSelectorComponent  -->
<g id="node11" class="node">
<title>Components.KindsSelectorComponent </title>
<polygon fill="#fb8072" stroke="#000000" points="1161.4198,-252 922.5802,-252 922.5802,-216 1161.4198,-216 1161.4198,-252"/>
<text text-anchor="middle" x="1042" y="-229.8" font-family="Times,serif" font-size="14.00" fill="#000000">Components.KindsSelectorComponent </text>
</g>
<!-- SharedModule&#45;&gt;Components.KindsSelectorComponent  -->
<g id="edge10" class="edge">
<title>SharedModule&#45;&gt;Components.KindsSelectorComponent </title>
<path fill="none" stroke="#000000" stroke-dasharray="5,2" d="M941.0007,-187.1061C941.0007,-187.1061 941.0007,-205.991 941.0007,-205.991"/>
<polygon fill="#000000" stroke="#000000" points="937.5008,-205.9909 941.0007,-215.991 944.5008,-205.991 937.5008,-205.9909"/>
</g>
<!-- Components.NotificationComponent  -->
<g id="node12" class="node">
<title>Components.NotificationComponent </title>
<polygon fill="#fb8072" stroke="#000000" points="904.2589,-252 677.7411,-252 677.7411,-216 904.2589,-216 904.2589,-252"/>
<text text-anchor="middle" x="791" y="-229.8" font-family="Times,serif" font-size="14.00" fill="#000000">Components.NotificationComponent </text>
</g>
<!-- SharedModule&#45;&gt;Components.NotificationComponent  -->
<g id="edge11" class="edge">
<title>SharedModule&#45;&gt;Components.NotificationComponent </title>
<path fill="none" stroke="#000000" stroke-dasharray="5,2" d="M882.5842,-187.1061C882.5842,-187.1061 882.5842,-205.991 882.5842,-205.991"/>
<polygon fill="#000000" stroke="#000000" points="879.0842,-205.9909 882.5842,-215.991 886.0842,-205.991 879.0842,-205.9909"/>
</g>
<!-- Components.TableFilterComponent  -->
<g id="node13" class="node">
<title>Components.TableFilterComponent </title>
<polygon fill="#fb8072" stroke="#000000" points="659.8116,-252 438.1884,-252 438.1884,-216 659.8116,-216 659.8116,-252"/>
<text text-anchor="middle" x="549" y="-229.8" font-family="Times,serif" font-size="14.00" fill="#000000">Components.TableFilterComponent </text>
</g>
<!-- SharedModule&#45;&gt;Components.TableFilterComponent  -->
<g id="edge12" class="edge">
<title>SharedModule&#45;&gt;Components.TableFilterComponent </title>
<path fill="none" stroke="#000000" stroke-dasharray="5,2" d="M860.7405,-181C774.5641,-181 605.5132,-181 605.5132,-181 605.5132,-181 605.5132,-205.7604 605.5132,-205.7604"/>
<polygon fill="#000000" stroke="#000000" points="602.0132,-205.7604 605.5132,-215.7604 609.0132,-205.7604 602.0132,-205.7604"/>
</g>
<!-- Components.TableFilterContainerComponent  -->
<g id="node14" class="node">
<title>Components.TableFilterContainerComponent </title>
<polygon fill="#fb8072" stroke="#000000" points="420.0194,-252 143.9806,-252 143.9806,-216 420.0194,-216 420.0194,-252"/>
<text text-anchor="middle" x="282" y="-229.8" font-family="Times,serif" font-size="14.00" fill="#000000">Components.TableFilterContainerComponent </text>
</g>
<!-- SharedModule&#45;&gt;Components.TableFilterContainerComponent  -->
<g id="edge13" class="edge">
<title>SharedModule&#45;&gt;Components.TableFilterContainerComponent </title>
<path fill="none" stroke="#000000" stroke-dasharray="5,2" d="M860.4348,-175C726.556,-175 367.6769,-175 367.6769,-175 367.6769,-175 367.6769,-205.9775 367.6769,-205.9775"/>
<polygon fill="#000000" stroke="#000000" points="364.1768,-205.9775 367.6769,-215.9775 371.1768,-205.9774 364.1768,-205.9775"/>
</g>
</g>
</svg>
