<?xml version="1.0" encoding="UTF-8" standalone="no"?>
<!DOCTYPE svg PUBLIC "-//W3C//DTD SVG 1.1//EN"
 "http://www.w3.org/Graphics/SVG/1.1/DTD/svg11.dtd">
<!-- Generated by graphviz version 2.40.1 (20161225.0304)
 -->
<!-- Title: dependencies Pages: 1 -->
<svg width="757pt" height="284pt"
 viewBox="0.00 0.00 757.00 284.00" xmlns="http://www.w3.org/2000/svg" xmlns:xlink="http://www.w3.org/1999/xlink">
<g id="graph0" class="graph" transform="scale(1 1) rotate(0) translate(4 280)">
<title>dependencies</title>
<polygon fill="#ffffff" stroke="transparent" points="-4,4 -4,-280 753,-280 753,4 -4,4"/>
<text text-anchor="start" x="353.5091" y="-42.4" font-family="sans-serif" font-weight="bold" font-size="14.00" fill="#000000">Legend</text>
<polygon fill="#ffffb3" stroke="transparent" points="140.5,-10 140.5,-30 160.5,-30 160.5,-10 140.5,-10"/>
<text text-anchor="start" x="164.129" y="-15.4" font-family="sans-serif" font-size="14.00" fill="#000000"> &#160;Declarations</text>
<polygon fill="#8dd3c7" stroke="transparent" points="253.5,-10 253.5,-30 273.5,-30 273.5,-10 253.5,-10"/>
<text text-anchor="start" x="277.2251" y="-15.4" font-family="sans-serif" font-size="14.00" fill="#000000"> &#160;Module</text>
<polygon fill="#80b1d3" stroke="transparent" points="339.5,-10 339.5,-30 359.5,-30 359.5,-10 339.5,-10"/>
<text text-anchor="start" x="363.2812" y="-15.4" font-family="sans-serif" font-size="14.00" fill="#000000"> &#160;Bootstrap</text>
<polygon fill="#fdb462" stroke="transparent" points="436.5,-10 436.5,-30 456.5,-30 456.5,-10 436.5,-10"/>
<text text-anchor="start" x="460.1732" y="-15.4" font-family="sans-serif" font-size="14.00" fill="#000000"> &#160;Providers</text>
<polygon fill="#fb8072" stroke="transparent" points="532.5,-10 532.5,-30 552.5,-30 552.5,-10 532.5,-10"/>
<text text-anchor="start" x="556.2258" y="-15.4" font-family="sans-serif" font-size="14.00" fill="#000000"> &#160;Exports</text>
<g id="clust1" class="cluster">
<title>cluster_SharedModule</title>
<polygon fill="none" stroke="#000000" stroke-dasharray="1,5" points="8,-70 8,-268 741,-268 741,-70 8,-70"/>
</g>
<g id="clust2" class="cluster">
<title>cluster_SharedModule_declarations</title>
<polygon fill="none" stroke="#000000" points="16,-78 16,-130 733,-130 733,-78 16,-78"/>
</g>
<g id="clust7" class="cluster">
<title>cluster_SharedModule_exports</title>
<polygon fill="none" stroke="#000000" points="107,-208 107,-260 642,-260 642,-208 107,-208"/>
</g>
<!-- Components.AngularTableComponent -->
<g id="node1" class="node">
<title>Components.AngularTableComponent</title>
<polygon fill="#ffffb3" stroke="#000000" points="724.8545,-122 491.1455,-122 491.1455,-86 724.8545,-86 724.8545,-122"/>
<text text-anchor="middle" x="608" y="-99.8" font-family="Times,serif" font-size="14.00" fill="#000000">Components.AngularTableComponent</text>
</g>
<!-- SharedModule -->
<g id="node4" class="node">
<title>SharedModule</title>
<polygon fill="#8dd3c7" stroke="#000000" points="392.4231,-187 389.4231,-191 368.4231,-191 365.4231,-187 293.5769,-187 293.5769,-151 392.4231,-151 392.4231,-187"/>
<text text-anchor="middle" x="343" y="-164.8" font-family="Times,serif" font-size="14.00" fill="#000000">SharedModule</text>
</g>
<!-- Components.AngularTableComponent&#45;&gt;SharedModule -->
<g id="edge1" class="edge">
<title>Components.AngularTableComponent&#45;&gt;SharedModule</title>
<path fill="none" stroke="#000000" d="M562.875,-122.1061C562.875,-141.3391 562.875,-169 562.875,-169 562.875,-169 402.3442,-169 402.3442,-169"/>
<polygon fill="#000000" stroke="#000000" points="402.3443,-165.5001 392.3442,-169 402.3442,-172.5001 402.3443,-165.5001"/>
</g>
<!-- Components.CenteredContainerComponent -->
<g id="node2" class="node">
<title>Components.CenteredContainerComponent</title>
<polygon fill="#ffffb3" stroke="#000000" points="473.8488,-122 212.1512,-122 212.1512,-86 473.8488,-86 473.8488,-122"/>
<text text-anchor="middle" x="343" y="-99.8" font-family="Times,serif" font-size="14.00" fill="#000000">Components.CenteredContainerComponent</text>
</g>
<!-- Components.CenteredContainerComponent&#45;&gt;SharedModule -->
<g id="edge2" class="edge">
<title>Components.CenteredContainerComponent&#45;&gt;SharedModule</title>
<path fill="none" stroke="#000000" d="M343,-122.1061C343,-122.1061 343,-140.991 343,-140.991"/>
<polygon fill="#000000" stroke="#000000" points="339.5001,-140.9909 343,-150.991 346.5001,-140.991 339.5001,-140.9909"/>
</g>
<!-- FavoritesModalComponent -->
<g id="node3" class="node">
<title>FavoritesModalComponent</title>
<polygon fill="#ffffb3" stroke="#000000" points="193.9804,-122 24.0196,-122 24.0196,-86 193.9804,-86 193.9804,-122"/>
<text text-anchor="middle" x="109" y="-99.8" font-family="Times,serif" font-size="14.00" fill="#000000">FavoritesModalComponent</text>
</g>
<!-- FavoritesModalComponent&#45;&gt;SharedModule -->
<g id="edge3" class="edge">
<title>FavoritesModalComponent&#45;&gt;SharedModule</title>
<path fill="none" stroke="#000000" d="M154.283,-122.1061C154.283,-141.3391 154.283,-169 154.283,-169 154.283,-169 283.4168,-169 283.4168,-169"/>
<polygon fill="#000000" stroke="#000000" points="283.4169,-172.5001 293.4168,-169 283.4168,-165.5001 283.4169,-172.5001"/>
</g>
<!-- Components.AngularTableComponent  -->
<g id="node5" class="node">
<title>Components.AngularTableComponent </title>
<polygon fill="#fb8072" stroke="#000000" points="634.3542,-252 397.6458,-252 397.6458,-216 634.3542,-216 634.3542,-252"/>
<text text-anchor="middle" x="516" y="-229.8" font-family="Times,serif" font-size="14.00" fill="#000000">Components.AngularTableComponent </text>
</g>
<!-- SharedModule&#45;&gt;Components.AngularTableComponent  -->
<g id="edge4" class="edge">
<title>SharedModule&#45;&gt;Components.AngularTableComponent </title>
<path fill="none" stroke="#000000" stroke-dasharray="5,2" d="M385.8177,-187.1061C385.8177,-206.3391 385.8177,-234 385.8177,-234 385.8177,-234 387.3705,-234 387.3705,-234"/>
<polygon fill="#000000" stroke="#000000" points="387.3705,-237.5001 397.3705,-234 387.3705,-230.5001 387.3705,-237.5001"/>
</g>
<!-- Components.CenteredContainerComponent  -->
<g id="node6" class="node">
<title>Components.CenteredContainerComponent </title>
<polygon fill="#fb8072" stroke="#000000" points="379.3486,-252 114.6514,-252 114.6514,-216 379.3486,-216 379.3486,-252"/>
<text text-anchor="middle" x="247" y="-229.8" font-family="Times,serif" font-size="14.00" fill="#000000">Components.CenteredContainerComponent </text>
</g>
<!-- SharedModule&#45;&gt;Components.CenteredContainerComponent  -->
<g id="edge5" class="edge">
<title>SharedModule&#45;&gt;Components.CenteredContainerComponent </title>
<path fill="none" stroke="#000000" stroke-dasharray="5,2" d="M336.6066,-187.1061C336.6066,-187.1061 336.6066,-205.991 336.6066,-205.991"/>
<polygon fill="#000000" stroke="#000000" points="333.1067,-205.9909 336.6066,-215.991 340.1067,-205.991 333.1067,-205.9909"/>
</g>
</g>
</svg>
