<?xml version="1.0" encoding="UTF-8" standalone="no"?>
<!DOCTYPE svg PUBLIC "-//W3C//DTD SVG 1.1//EN"
 "http://www.w3.org/Graphics/SVG/1.1/DTD/svg11.dtd">
<!-- Generated by graphviz version 2.40.1 (20161225.0304)
 -->
<!-- Title: dependencies Pages: 1 -->
<svg width="948pt" height="211pt"
 viewBox="0.00 0.00 948.00 211.00" xmlns="http://www.w3.org/2000/svg" xmlns:xlink="http://www.w3.org/1999/xlink">
<g id="graph0" class="graph" transform="scale(1 1) rotate(0) translate(4 207)">
<title>dependencies</title>
<polygon fill="#ffffff" stroke="transparent" points="-4,4 -4,-207 944,-207 944,4 -4,4"/>
<text text-anchor="start" x="449.0091" y="-42.4" font-family="sans-serif" font-weight="bold" font-size="14.00" fill="#000000">Legend</text>
<polygon fill="#ffffb3" stroke="transparent" points="236,-10 236,-30 256,-30 256,-10 236,-10"/>
<text text-anchor="start" x="259.629" y="-15.4" font-family="sans-serif" font-size="14.00" fill="#000000"> &#160;Declarations</text>
<polygon fill="#8dd3c7" stroke="transparent" points="349,-10 349,-30 369,-30 369,-10 349,-10"/>
<text text-anchor="start" x="372.7251" y="-15.4" font-family="sans-serif" font-size="14.00" fill="#000000"> &#160;Module</text>
<polygon fill="#80b1d3" stroke="transparent" points="435,-10 435,-30 455,-30 455,-10 435,-10"/>
<text text-anchor="start" x="458.7812" y="-15.4" font-family="sans-serif" font-size="14.00" fill="#000000"> &#160;Bootstrap</text>
<polygon fill="#fdb462" stroke="transparent" points="532,-10 532,-30 552,-30 552,-10 532,-10"/>
<text text-anchor="start" x="555.6732" y="-15.4" font-family="sans-serif" font-size="14.00" fill="#000000"> &#160;Providers</text>
<polygon fill="#fb8072" stroke="transparent" points="628,-10 628,-30 648,-30 648,-10 628,-10"/>
<text text-anchor="start" x="651.7258" y="-15.4" font-family="sans-serif" font-size="14.00" fill="#000000"> &#160;Exports</text>
<g id="clust1" class="cluster">
<title>cluster_DashboardModule</title>
<polygon fill="none" stroke="#000000" stroke-dasharray="1,5" points="8,-70 8,-195 932,-195 932,-70 8,-70"/>
</g>
<g id="clust2" class="cluster">
<title>cluster_DashboardModule_declarations</title>
<polygon fill="none" stroke="#000000" points="322,-78 322,-130 924,-130 924,-78 322,-78"/>
</g>
<g id="clust6" class="cluster">
<title>cluster_DashboardModule_imports</title>
<polygon fill="none" stroke="#000000" points="16,-78 16,-130 314,-130 314,-78 16,-78"/>
</g>
<!-- Components.HowToComponent -->
<g id="node1" class="node">
<title>Components.HowToComponent</title>
<polygon fill="#ffffb3" stroke="#000000" points="916.3756,-122 717.6244,-122 717.6244,-86 916.3756,-86 916.3756,-122"/>
<text text-anchor="middle" x="817" y="-99.8" font-family="Times,serif" font-size="14.00" fill="#000000">Components.HowToComponent</text>
</g>
<!-- DashboardModule -->
<g id="node4" class="node">
<title>DashboardModule</title>
<polygon fill="#8dd3c7" stroke="#000000" points="461.191,-187 458.191,-191 437.191,-191 434.191,-187 340.809,-187 340.809,-151 461.191,-151 461.191,-187"/>
<text text-anchor="middle" x="401" y="-164.8" font-family="Times,serif" font-size="14.00" fill="#000000">DashboardModule</text>
</g>
<!-- Components.HowToComponent&#45;&gt;DashboardModule -->
<g id="edge1" class="edge">
<title>Components.HowToComponent&#45;&gt;DashboardModule</title>
<path fill="none" stroke="#000000" d="M817,-122.2843C817,-143.3211 817,-175 817,-175 817,-175 471.49,-175 471.49,-175"/>
<polygon fill="#000000" stroke="#000000" points="471.49,-171.5001 461.49,-175 471.4899,-178.5001 471.49,-171.5001"/>
</g>
<!-- Components.WelcomeComponent -->
<g id="node2" class="node">
<title>Components.WelcomeComponent</title>
<polygon fill="#ffffb3" stroke="#000000" points="699.7491,-122 490.2509,-122 490.2509,-86 699.7491,-86 699.7491,-122"/>
<text text-anchor="middle" x="595" y="-99.8" font-family="Times,serif" font-size="14.00" fill="#000000">Components.WelcomeComponent</text>
</g>
<!-- Components.WelcomeComponent&#45;&gt;DashboardModule -->
<g id="edge2" class="edge">
<title>Components.WelcomeComponent&#45;&gt;DashboardModule</title>
<path fill="none" stroke="#000000" d="M595,-122.0225C595,-139.3734 595,-163 595,-163 595,-163 471.3194,-163 471.3194,-163"/>
<polygon fill="#000000" stroke="#000000" points="471.3194,-159.5001 461.3194,-163 471.3193,-166.5001 471.3194,-159.5001"/>
</g>
<!-- DashboardComponent -->
<g id="node3" class="node">
<title>DashboardComponent</title>
<polygon fill="#ffffb3" stroke="#000000" points="471.9734,-122 330.0266,-122 330.0266,-86 471.9734,-86 471.9734,-122"/>
<text text-anchor="middle" x="401" y="-99.8" font-family="Times,serif" font-size="14.00" fill="#000000">DashboardComponent</text>
</g>
<!-- DashboardComponent&#45;&gt;DashboardModule -->
<g id="edge3" class="edge">
<title>DashboardComponent&#45;&gt;DashboardModule</title>
<path fill="none" stroke="#000000" d="M401,-122.1061C401,-122.1061 401,-140.991 401,-140.991"/>
<polygon fill="#000000" stroke="#000000" points="397.5001,-140.9909 401,-150.991 404.5001,-140.991 397.5001,-140.9909"/>
</g>
<!-- DashboardRoutingModule -->
<g id="node5" class="node">
<title>DashboardRoutingModule</title>
<polygon fill="#8dd3c7" stroke="#000000" points="305.8089,-122 302.8089,-126 281.8089,-126 278.8089,-122 140.1911,-122 140.1911,-86 305.8089,-86 305.8089,-122"/>
<text text-anchor="middle" x="223" y="-99.8" font-family="Times,serif" font-size="14.00" fill="#000000">DashboardRoutingModule</text>
</g>
<!-- DashboardRoutingModule&#45;&gt;DashboardModule -->
<g id="edge4" class="edge">
<title>DashboardRoutingModule&#45;&gt;DashboardModule</title>
<path fill="none" stroke="#000000" d="M223,-122.0225C223,-139.3734 223,-163 223,-163 223,-163 330.7373,-163 330.7373,-163"/>
<polygon fill="#000000" stroke="#000000" points="330.7374,-166.5001 340.7373,-163 330.7373,-159.5001 330.7374,-166.5001"/>
</g>
<!-- SharedModule -->
<g id="node6" class="node">
<title>SharedModule</title>
<polygon fill="#8dd3c7" stroke="#000000" points="122.4231,-122 119.4231,-126 98.4231,-126 95.4231,-122 23.5769,-122 23.5769,-86 122.4231,-86 122.4231,-122"/>
<text text-anchor="middle" x="73" y="-99.8" font-family="Times,serif" font-size="14.00" fill="#000000">SharedModule</text>
</g>
<!-- SharedModule&#45;&gt;DashboardModule -->
<g id="edge5" class="edge">
<title>SharedModule&#45;&gt;DashboardModule</title>
<path fill="none" stroke="#000000" d="M73,-122.2843C73,-143.3211 73,-175 73,-175 73,-175 330.8397,-175 330.8397,-175"/>
<polygon fill="#000000" stroke="#000000" points="330.8398,-178.5001 340.8397,-175 330.8397,-171.5001 330.8398,-178.5001"/>
</g>
</g>
</svg>
