<?xml version="1.0" encoding="UTF-8" standalone="no"?>
<!DOCTYPE svg PUBLIC "-//W3C//DTD SVG 1.1//EN"
 "http://www.w3.org/Graphics/SVG/1.1/DTD/svg11.dtd">
<!-- Generated by graphviz version 2.40.1 (20161225.0304)
 -->
<!-- Title: dependencies Pages: 1 -->
<svg width="583pt" height="211pt"
 viewBox="0.00 0.00 583.00 211.00" xmlns="http://www.w3.org/2000/svg" xmlns:xlink="http://www.w3.org/1999/xlink">
<g id="graph0" class="graph" transform="scale(1 1) rotate(0) translate(4 207)">
<title>dependencies</title>
<polygon fill="#ffffff" stroke="transparent" points="-4,4 -4,-207 579,-207 579,4 -4,4"/>
<text text-anchor="start" x="266.5091" y="-42.4" font-family="sans-serif" font-weight="bold" font-size="14.00" fill="#000000">Legend</text>
<polygon fill="#ffffb3" stroke="transparent" points="53.5,-10 53.5,-30 73.5,-30 73.5,-10 53.5,-10"/>
<text text-anchor="start" x="77.129" y="-15.4" font-family="sans-serif" font-size="14.00" fill="#000000"> &#160;Declarations</text>
<polygon fill="#8dd3c7" stroke="transparent" points="166.5,-10 166.5,-30 186.5,-30 186.5,-10 166.5,-10"/>
<text text-anchor="start" x="190.2251" y="-15.4" font-family="sans-serif" font-size="14.00" fill="#000000"> &#160;Module</text>
<polygon fill="#80b1d3" stroke="transparent" points="252.5,-10 252.5,-30 272.5,-30 272.5,-10 252.5,-10"/>
<text text-anchor="start" x="276.2812" y="-15.4" font-family="sans-serif" font-size="14.00" fill="#000000"> &#160;Bootstrap</text>
<polygon fill="#fdb462" stroke="transparent" points="349.5,-10 349.5,-30 369.5,-30 369.5,-10 349.5,-10"/>
<text text-anchor="start" x="373.1732" y="-15.4" font-family="sans-serif" font-size="14.00" fill="#000000"> &#160;Providers</text>
<polygon fill="#fb8072" stroke="transparent" points="445.5,-10 445.5,-30 465.5,-30 465.5,-10 445.5,-10"/>
<text text-anchor="start" x="469.2258" y="-15.4" font-family="sans-serif" font-size="14.00" fill="#000000"> &#160;Exports</text>
<g id="clust1" class="cluster">
<title>cluster_InsuranceSelectorModule</title>
<polygon fill="none" stroke="#000000" stroke-dasharray="1,5" points="8,-70 8,-195 567,-195 567,-70 8,-70"/>
</g>
<g id="clust2" class="cluster">
<title>cluster_InsuranceSelectorModule_declarations</title>
<polygon fill="none" stroke="#000000" points="361,-78 361,-130 559,-130 559,-78 361,-78"/>
</g>
<g id="clust4" class="cluster">
<title>cluster_InsuranceSelectorModule_imports</title>
<polygon fill="none" stroke="#000000" points="16,-78 16,-130 353,-130 353,-78 16,-78"/>
</g>
<!-- InsuranceSelectorComponent -->
<g id="node1" class="node">
<title>InsuranceSelectorComponent</title>
<polygon fill="#ffffb3" stroke="#000000" points="550.6106,-122 369.3894,-122 369.3894,-86 550.6106,-86 550.6106,-122"/>
<text text-anchor="middle" x="460" y="-99.8" font-family="Times,serif" font-size="14.00" fill="#000000">InsuranceSelectorComponent</text>
</g>
<!-- InsuranceSelectorModule -->
<g id="node2" class="node">
<title>InsuranceSelectorModule</title>
<polygon fill="#8dd3c7" stroke="#000000" points="322.8277,-187 319.8277,-191 298.8277,-191 295.8277,-187 163.1723,-187 163.1723,-151 322.8277,-151 322.8277,-187"/>
<text text-anchor="middle" x="243" y="-164.8" font-family="Times,serif" font-size="14.00" fill="#000000">InsuranceSelectorModule</text>
</g>
<!-- InsuranceSelectorComponent&#45;&gt;InsuranceSelectorModule -->
<g id="edge1" class="edge">
<title>InsuranceSelectorComponent&#45;&gt;InsuranceSelectorModule</title>
<path fill="none" stroke="#000000" d="M460,-122.1061C460,-141.3391 460,-169 460,-169 460,-169 332.8783,-169 332.8783,-169"/>
<polygon fill="#000000" stroke="#000000" points="332.8784,-165.5001 322.8783,-169 332.8783,-172.5001 332.8784,-165.5001"/>
</g>
<!-- InsuranceSelectorRoutingModule -->
<g id="node3" class="node">
<title>InsuranceSelectorRoutingModule</title>
<polygon fill="#8dd3c7" stroke="#000000" points="345.4454,-122 342.4454,-126 321.4454,-126 318.4454,-122 140.5546,-122 140.5546,-86 345.4454,-86 345.4454,-122"/>
<text text-anchor="middle" x="243" y="-99.8" font-family="Times,serif" font-size="14.00" fill="#000000">InsuranceSelectorRoutingModule</text>
</g>
<!-- InsuranceSelectorRoutingModule&#45;&gt;InsuranceSelectorModule -->
<g id="edge2" class="edge">
<title>InsuranceSelectorRoutingModule&#45;&gt;InsuranceSelectorModule</title>
<path fill="none" stroke="#000000" d="M243,-122.1061C243,-122.1061 243,-140.991 243,-140.991"/>
<polygon fill="#000000" stroke="#000000" points="239.5001,-140.9909 243,-150.991 246.5001,-140.991 239.5001,-140.9909"/>
</g>
<!-- SharedModule -->
<g id="node4" class="node">
<title>SharedModule</title>
<polygon fill="#8dd3c7" stroke="#000000" points="122.4231,-122 119.4231,-126 98.4231,-126 95.4231,-122 23.5769,-122 23.5769,-86 122.4231,-86 122.4231,-122"/>
<text text-anchor="middle" x="73" y="-99.8" font-family="Times,serif" font-size="14.00" fill="#000000">SharedModule</text>
</g>
<!-- SharedModule&#45;&gt;InsuranceSelectorModule -->
<g id="edge3" class="edge">
<title>SharedModule&#45;&gt;InsuranceSelectorModule</title>
<path fill="none" stroke="#000000" d="M73,-122.1061C73,-141.3391 73,-169 73,-169 73,-169 152.9779,-169 152.9779,-169"/>
<polygon fill="#000000" stroke="#000000" points="152.978,-172.5001 162.9779,-169 152.9779,-165.5001 152.978,-172.5001"/>
</g>
</g>
</svg>
